<?xml version="1.0" encoding="utf-8"?>
<!-- Generator: Adobe Illustrator 24.0.1, SVG Export Plug-In . SVG Version: 6.00 Build 0)  -->
<svg version="1.1" id="Layer_1" xmlns="http://www.w3.org/2000/svg" xmlns:xlink="http://www.w3.org/1999/xlink" x="0px" y="0px"
	 viewBox="0 0 309.9 141" style="enable-background:new 0 0 309.9 141;" xml:space="preserve">
<style type="text/css">
	.st0{fill:#FFFFFF;}
	.st1{fill:#FFCD00;}
	.st2{fill:none;stroke:#FFCD00;stroke-width:4;stroke-miterlimit:10;}
	.st3{fill:none;stroke:#FFFFFF;stroke-width:4;stroke-miterlimit:10;}
</style>
<g>
	<path class="st0" d="M92.7,38.4c0.1,0.5,0.2,0.9,0.5,1.3c0.3,0.4,0.6,0.7,1.1,1c0.4,0.3,1,0.5,1.5,0.6s1.2,0.2,2,0.2
		c0.7,0,1.3-0.1,1.8-0.2c0.5-0.1,1-0.4,1.4-0.6c0.4-0.3,0.7-0.6,0.9-1s0.3-0.8,0.3-1.2c0-0.4-0.1-0.7-0.2-1
		c-0.2-0.3-0.4-0.6-0.7-0.8s-0.8-0.5-1.3-0.6c-0.5-0.2-1.2-0.4-1.9-0.5L95,34.9c-4.4-0.9-6.6-3.1-6.6-6.8c0-1.1,0.2-2.1,0.7-3
		c0.4-0.9,1.1-1.7,1.9-2.3c0.8-0.6,1.8-1.1,2.9-1.5c1.1-0.3,2.4-0.5,3.8-0.5c1.3,0,2.5,0.2,3.7,0.5s2.1,0.8,2.9,1.5
		c0.8,0.6,1.5,1.4,1.9,2.3c0.5,0.9,0.7,1.8,0.8,2.9h-4.8c-0.1-0.5-0.2-0.9-0.5-1.3c-0.2-0.4-0.6-0.7-0.9-1c-0.4-0.3-0.8-0.5-1.4-0.6
		c-0.5-0.1-1.1-0.2-1.7-0.2c-0.6,0-1.2,0.1-1.7,0.2c-0.5,0.1-1,0.3-1.3,0.6s-0.7,0.6-0.9,0.9c-0.2,0.4-0.3,0.8-0.3,1.2
		c0,0.7,0.3,1.3,0.9,1.8c0.6,0.4,1.6,0.8,3.1,1.1l2.9,0.6c1.2,0.3,2.3,0.6,3.1,1c0.9,0.4,1.6,0.9,2.2,1.4c0.6,0.5,1,1.2,1.2,1.9
		s0.4,1.5,0.4,2.5c0,1.2-0.2,2.3-0.7,3.2s-1.1,1.8-1.9,2.4c-0.8,0.7-1.9,1.2-3.1,1.5s-2.6,0.5-4.1,0.5c-1.4,0-2.7-0.2-3.9-0.5
		c-1.2-0.3-2.2-0.8-3-1.4s-1.5-1.4-2-2.3c-0.5-0.9-0.7-1.9-0.8-3H92.7z"/>
	<path class="st0" d="M112.1,45V21.3h5.1V45H112.1z"/>
	<path class="st0" d="M123,45V21.3h6l6.7,15.9h0.3l6.7-15.9h5.9V45h-4.7V29.2h-0.3l-6.1,14.5h-3.4l-6.2-14.5h-0.3V45H123z"/>
	<path class="st0" d="M159.5,36.3c0,0.7,0.1,1.4,0.3,2c0.2,0.6,0.5,1.1,1,1.5c0.4,0.4,1,0.8,1.6,1c0.6,0.2,1.3,0.3,2.2,0.3
		c0.8,0,1.5-0.1,2.2-0.3c0.6-0.2,1.2-0.6,1.6-1c0.4-0.4,0.8-0.9,1-1.5c0.2-0.6,0.3-1.3,0.3-2v-15h5.1v15.5c0,1.3-0.2,2.5-0.7,3.6
		c-0.5,1.1-1.2,2-2,2.8c-0.9,0.8-1.9,1.4-3.2,1.8c-1.2,0.4-2.6,0.6-4.2,0.6c-1.5,0-2.9-0.2-4.2-0.6c-1.2-0.4-2.3-1-3.2-1.8
		c-0.9-0.8-1.6-1.7-2-2.8c-0.5-1.1-0.7-2.3-0.7-3.6V21.3h5.1V36.3z"/>
	<path class="st0" d="M196.4,45h-15.8V21.3h5.1v19.3h10.7V45z"/>
	<path class="st0" d="M214.6,39.3h-8.5l-1.9,5.6h-5.1l8.4-23.7h5.9l8.4,23.7h-5.5L214.6,39.3z M207.2,35.5h6.3l-3-9.3h-0.3
		L207.2,35.5z"/>
	<path class="st0" d="M231.9,45V25.6h-7.2v-4.2h19.5v4.2H237V45H231.9z"/>
	<path class="st0" d="M248.7,45V21.3h5.1V45H248.7z"/>
	<path class="st0" d="M270.1,20.7c1.8,0,3.4,0.3,4.8,0.9s2.6,1.4,3.6,2.5c1,1.1,1.8,2.4,2.3,3.9c0.5,1.5,0.8,3.3,0.8,5.2
		c0,1.9-0.3,3.7-0.8,5.2c-0.5,1.5-1.3,2.8-2.3,3.9c-1,1.1-2.2,1.9-3.7,2.5s-3,0.9-4.8,0.9c-1.8,0-3.4-0.3-4.8-0.9s-2.7-1.4-3.7-2.5
		c-1-1.1-1.8-2.4-2.3-3.9c-0.5-1.5-0.8-3.3-0.8-5.2c0-1.9,0.3-3.6,0.8-5.2c0.5-1.5,1.3-2.8,2.3-3.9c1-1.1,2.2-1.9,3.7-2.5
		C266.8,21,268.4,20.7,270.1,20.7z M270.1,25.1c-1,0-1.9,0.2-2.7,0.6s-1.5,0.9-2,1.6c-0.6,0.7-1,1.5-1.3,2.5c-0.3,1-0.5,2.1-0.5,3.4
		s0.2,2.3,0.5,3.3c0.3,1,0.7,1.8,1.3,2.5c0.6,0.7,1.2,1.2,2,1.6c0.8,0.4,1.7,0.6,2.7,0.6c1,0,1.9-0.2,2.7-0.6s1.5-0.9,2-1.6
		c0.6-0.7,1-1.6,1.3-2.5c0.3-1,0.5-2.1,0.5-3.3s-0.2-2.4-0.5-3.4c-0.3-1-0.7-1.8-1.3-2.5c-0.6-0.7-1.2-1.2-2-1.6
		S271.1,25.1,270.1,25.1z"/>
	<path class="st0" d="M286.5,45V21.3h4.2l11.1,14.7h0.3V21.3h4.8V45h-4.2l-11.1-14.8h-0.3V45H286.5z"/>
	<path class="st1" d="M98.4,55.3c1.8,0,3.4,0.3,4.8,0.8c1.4,0.5,2.6,1.3,3.6,2.3c1,1,1.7,2.2,2.2,3.7c0.5,1.4,0.8,3.1,0.8,4.9
		c0,1.9-0.3,3.6-0.8,5.1c-0.5,1.5-1.2,2.7-2.2,3.8c-1,1-2.1,1.8-3.6,2.3c-1.4,0.5-3,0.8-4.8,0.8h-9.5V55.3H98.4z M94,74.8h3.6
		c2.2,0,4-0.7,5.2-2s1.8-3.2,1.8-5.7c0-1.2-0.2-2.3-0.5-3.2s-0.8-1.7-1.4-2.4c-0.6-0.6-1.3-1.1-2.2-1.5c-0.9-0.3-1.8-0.5-2.9-0.5H94
		V74.8z"/>
	<path class="st1" d="M130.5,79h-16V55.3h16v4.2h-10.9v5.5h10.3V69h-10.3v5.8h10.9V79z"/>
	<path class="st1" d="M149.7,79h-5.1V55.3h10.1c1.3,0,2.5,0.2,3.6,0.5c1.1,0.3,2,0.9,2.7,1.5s1.3,1.5,1.7,2.4c0.4,0.9,0.6,2,0.6,3.2
		c0,0.8-0.1,1.5-0.3,2.2c-0.2,0.7-0.5,1.3-0.9,1.9c-0.4,0.6-0.8,1.1-1.4,1.5c-0.5,0.4-1.2,0.8-1.9,1.1l5.1,9.3h-5.7l-4.5-8.6h-4.1
		V79z M149.7,66.6h4.4c1.3,0,2.3-0.3,3-1c0.7-0.6,1.1-1.5,1.1-2.7c0-0.6-0.1-1.1-0.3-1.5c-0.2-0.5-0.5-0.8-0.8-1.2s-0.8-0.6-1.3-0.7
		c-0.5-0.2-1.1-0.3-1.7-0.3h-4.4V66.6z"/>
	<path class="st1" d="M182.2,73.3h-8.5l-1.9,5.6h-5.1l8.4-23.7h5.9l8.4,23.7H184L182.2,73.3z M174.8,69.5h6.3l-3-9.3h-0.3
		L174.8,69.5z"/>
	<path class="st1" d="M203.8,79.6c-1.8,0-3.3-0.3-4.7-0.9c-1.4-0.6-2.6-1.4-3.6-2.5c-1-1.1-1.7-2.4-2.2-3.9
		c-0.5-1.5-0.8-3.3-0.8-5.2c0-1.9,0.3-3.7,0.8-5.2s1.3-2.8,2.2-3.9c1-1.1,2.2-1.9,3.6-2.5c1.4-0.6,3-0.9,4.7-0.9
		c1.4,0,2.8,0.2,4,0.7c1.2,0.4,2.3,1.1,3.2,1.8c0.9,0.8,1.7,1.7,2.2,2.8c0.6,1.1,0.9,2.3,1,3.6h-4.9c-0.1-0.7-0.3-1.3-0.7-1.9
		c-0.3-0.6-0.7-1-1.2-1.4c-0.5-0.4-1-0.7-1.7-0.9c-0.6-0.2-1.3-0.3-2-0.3c-0.9,0-1.8,0.2-2.6,0.6c-0.8,0.4-1.4,0.9-1.9,1.6
		c-0.5,0.7-0.9,1.5-1.2,2.5c-0.3,1-0.4,2.1-0.4,3.4s0.1,2.4,0.4,3.4c0.3,1,0.7,1.8,1.2,2.5c0.5,0.7,1.2,1.2,1.9,1.6
		c0.8,0.4,1.6,0.6,2.6,0.6c0.7,0,1.4-0.1,2-0.3s1.2-0.5,1.7-0.9s0.9-0.8,1.2-1.3c0.3-0.5,0.5-1.1,0.7-1.8h4.9
		c-0.1,1.3-0.4,2.4-1,3.5c-0.6,1.1-1.3,2-2.2,2.7c-0.9,0.8-2,1.3-3.2,1.8C206.6,79.4,205.3,79.6,203.8,79.6z"/>
	<path class="st1" d="M234.9,79v-9.9H224V79H219V55.3h5.1v9.5h10.9v-9.5h5.1V79H234.9z"/>
	<path class="st1" d="M259.5,73.3H251l-1.9,5.6h-5.1l8.4-23.7h5.9l8.4,23.7h-5.5L259.5,73.3z M252.1,69.5h6.3l-3-9.3h-0.3
		L252.1,69.5z"/>
	<path class="st1" d="M276.8,79V59.6h-7.2v-4.2h19.5v4.2h-7.2V79H276.8z"/>
	<path class="st1" d="M98.4,89.3c1.8,0,3.4,0.3,4.8,0.8c1.4,0.5,2.6,1.3,3.6,2.3s1.7,2.2,2.2,3.7c0.5,1.4,0.8,3.1,0.8,4.9
		c0,1.9-0.3,3.6-0.8,5.1s-1.2,2.7-2.2,3.8c-1,1-2.1,1.8-3.6,2.3c-1.4,0.5-3,0.8-4.8,0.8h-9.5V89.3H98.4z M94,108.8h3.6
		c2.2,0,4-0.7,5.2-2s1.8-3.2,1.8-5.7c0-1.2-0.2-2.3-0.5-3.2c-0.3-0.9-0.8-1.7-1.4-2.4c-0.6-0.6-1.3-1.1-2.2-1.5
		c-0.9-0.3-1.8-0.5-2.9-0.5H94V108.8z"/>
	<path class="st1" d="M130.5,113h-16V89.3h16v4.2h-10.9v5.5h10.3v3.9h-10.3v5.8h10.9V113z"/>
	<path class="st1" d="M154.9,113.6c-1.8,0-3.3-0.3-4.7-0.9c-1.4-0.6-2.6-1.4-3.6-2.5c-1-1.1-1.7-2.4-2.3-3.9
		c-0.5-1.5-0.8-3.3-0.8-5.2s0.3-3.7,0.8-5.2s1.3-2.8,2.3-3.9c1-1.1,2.2-1.9,3.6-2.5c1.4-0.6,3-0.9,4.7-0.9c1.4,0,2.8,0.2,4,0.7
		c1.2,0.4,2.3,1.1,3.2,1.8c0.9,0.8,1.7,1.7,2.2,2.8c0.6,1.1,0.9,2.3,1,3.6h-4.9c-0.1-0.7-0.3-1.3-0.7-1.9c-0.3-0.6-0.7-1-1.2-1.4
		s-1-0.7-1.7-0.9c-0.6-0.2-1.3-0.3-2-0.3c-0.9,0-1.8,0.2-2.6,0.6c-0.8,0.4-1.4,0.9-1.9,1.6c-0.5,0.7-0.9,1.5-1.2,2.5
		c-0.3,1-0.4,2.1-0.4,3.4s0.1,2.4,0.4,3.4c0.3,1,0.7,1.8,1.2,2.5c0.5,0.7,1.2,1.2,1.9,1.6c0.8,0.4,1.6,0.6,2.6,0.6
		c0.7,0,1.4-0.1,2-0.3s1.2-0.5,1.7-0.9c0.5-0.4,0.9-0.8,1.2-1.3c0.3-0.5,0.5-1.1,0.7-1.8h4.9c-0.1,1.3-0.4,2.4-1,3.5
		c-0.6,1.1-1.3,2-2.2,2.7c-0.9,0.8-2,1.3-3.2,1.8C157.7,113.4,156.4,113.6,154.9,113.6z"/>
	<path class="st1" d="M175.1,113h-5.1V89.3h10.1c1.3,0,2.5,0.2,3.6,0.5s2,0.9,2.7,1.5s1.3,1.5,1.7,2.4c0.4,0.9,0.6,2,0.6,3.2
		c0,0.8-0.1,1.5-0.3,2.2c-0.2,0.7-0.5,1.3-0.9,1.9c-0.4,0.6-0.8,1.1-1.4,1.5c-0.5,0.4-1.2,0.8-1.9,1.1l5.1,9.3h-5.7l-4.5-8.6h-4.1
		V113z M175.1,100.6h4.4c1.3,0,2.3-0.3,3-1c0.7-0.6,1.1-1.5,1.1-2.7c0-0.6-0.1-1.1-0.3-1.5c-0.2-0.5-0.5-0.8-0.8-1.2
		c-0.4-0.3-0.8-0.6-1.3-0.7c-0.5-0.2-1.1-0.3-1.7-0.3h-4.4V100.6z"/>
	<path class="st1" d="M209.9,113h-16V89.3h16v4.2h-10.9v5.5h10.3v3.9h-10.3v5.8h10.9V113z"/>
	<path class="st1" d="M224.7,89.3c1.8,0,3.4,0.3,4.8,0.8c1.4,0.5,2.6,1.3,3.6,2.3s1.7,2.2,2.2,3.7s0.8,3.1,0.8,4.9
		c0,1.9-0.3,3.6-0.8,5.1s-1.2,2.7-2.2,3.8s-2.2,1.8-3.6,2.3s-3,0.8-4.8,0.8h-9.5V89.3H224.7z M220.2,108.8h3.6c2.2,0,4-0.7,5.2-2
		c1.2-1.3,1.8-3.2,1.8-5.7c0-1.2-0.2-2.3-0.5-3.2c-0.3-0.9-0.8-1.7-1.4-2.4c-0.6-0.6-1.3-1.1-2.2-1.5c-0.9-0.3-1.8-0.5-2.9-0.5h-3.6
		V108.8z"/>
	<path class="st1" d="M240.8,113V89.3h5.1V113H240.8z"/>
	<path class="st1" d="M257.5,113V93.6h-7.2v-4.2h19.5v4.2h-7.2V113H257.5z"/>
</g>
<path class="st2" d="M41.9,38.4c20.6,0,37.3,16.7,37.3,37.3s-16.7,37.3-37.3,37.3S4.5,96.4,4.5,75.8S21.2,38.4,41.9,38.4L41.9,38.4z
	"/>
<line class="st2" x1="37.5" y1="40.4" x2="37.5" y2="32"/>
<line class="st2" x1="46.2" y1="32" x2="46.2" y2="40.4"/>
<polyline class="st2" points="65.8,48.3 75.2,38.9 80.7,44.4 71.3,53.8 "/>
<line class="st3" x1="11.1" y1="77.8" x2="19.2" y2="77.8"/>
<line class="st3" x1="41.9" y1="108.6" x2="41.9" y2="100.4"/>
<line class="st3" x1="72.6" y1="77.8" x2="64.5" y2="77.8"/>
<line class="st3" x1="41.9" y1="47" x2="41.9" y2="55.1"/>
<path class="st2" d="M41.9,72.3c3,0,5.5,2.5,5.5,5.5s-2.5,5.5-5.5,5.5s-5.5-2.5-5.5-5.5S38.8,72.3,41.9,72.3L41.9,72.3z"/>
<line class="st2" x1="22.9" y1="58.9" x2="37.8" y2="73.8"/>
<path class="st2" d="M32.1,21.9h19.5c0.9,0,1.7,0.8,1.7,1.7v5.7c0,0.9-0.8,1.7-1.7,1.7H32.1c-0.9,0-1.7-0.8-1.7-1.7v-5.7
	C30.4,22.6,31.2,21.9,32.1,21.9L32.1,21.9z"/>
</svg>
